<?xml version="1.0" encoding="UTF-8"?>
<svg width="11px" height="12px" viewBox="0 0 11 12" version="1.1" xmlns="http://www.w3.org/2000/svg" xmlns:xlink="http://www.w3.org/1999/xlink">
    <!-- Generator: Sketch 52.5 (67469) - http://www.bohemiancoding.com/sketch -->
    <title>check</title>
    <desc>Created with Sketch.</desc>
    <g id="Клиенты" stroke="none" stroke-width="1" fill="none" fill-rule="evenodd">
        <g transform="translate(-888.000000, -266.000000)" fill="#FFFFFF" id="Чекбоксы">
            <g transform="translate(642.000000, 263.000000)">
                <g id="check" transform="translate(246.000000, 3.000000)">
                    <path d="M4.15957143,11.7841429 C3.81778571,11.7841429 3.49407143,11.6246429 3.28664286,11.3496429 L0.479285714,7.64028571 C0.113928571,7.15864286 0.209,6.47271429 0.691428571,6.10735714 C1.17464286,5.74042857 1.86057143,5.83707143 2.22592857,6.3195 L4.07314286,8.75835714 L8.7175,1.30035714 C9.03728571,0.788071429 9.713,0.630928571 10.2268571,0.950714286 C10.7399286,1.26971429 10.8978571,1.94542857 10.5772857,2.45928571 L5.08985714,11.2671429 C4.89971429,11.5743571 4.5705,11.7660714 4.20985714,11.7825714 C4.19257143,11.7841429 4.17685714,11.7841429 4.15957143,11.7841429 Z" id="Path"></path>
                </g>
            </g>
        </g>
    </g>
</svg>